<svg xmlns="http://www.w3.org/2000/svg" width="962.442" height="261.032" viewBox="0 0 962.442 261.032">
  <metadata><?xpacket begin="﻿" id="W5M0MpCehiHzreSzNTczkc9d"?>
<x:xmpmeta xmlns:x="adobe:ns:meta/" x:xmptk="Adobe XMP Core 5.6-c142 79.160924, 2017/07/13-01:06:39        ">
   <rdf:RDF xmlns:rdf="http://www.w3.org/1999/02/22-rdf-syntax-ns#">
      <rdf:Description rdf:about=""/>
   </rdf:RDF>
</x:xmpmeta>
                                                                                                    
                                                                                                    
                                                                                                    
                                                                                                    
                                                                                                    
                                                                                                    
                                                                                                    
                                                                                                    
                                                                                                    
                                                                                                    
                                                                                                    
                                                                                                    
                                                                                                    
                                                                                                    
                                                                                                    
                                                                                                    
                                                                                                    
                                                                                                    
                                                                                                    
                                                                                                    
                           
<?xpacket end="w"?></metadata>
<defs>
    <style>
      .cls-1 {
        fill: #222;
        fill-rule: evenodd;
      }
    </style>
  </defs>
  <path id="akaijobs" class="cls-1" d="M454.038,566.224H489.26V485.952q0-28.669-16.382-43.276T425.37,428.068q-36.861,0-58.157,26.758l25.938,17.747q12.831-15.562,31.4-15.563,12.556,0,21.024,6.963a21.849,21.849,0,0,1,8.464,17.61v4.1a105.015,105.015,0,0,0-13.925-4.232q-8.466-2.048-21.569-2.048a72,72,0,0,0-21.707,3.14,51.775,51.775,0,0,0-17.337,9.147,42.557,42.557,0,0,0-11.468,14.334,41.833,41.833,0,0,0-4.1,18.7,44.525,44.525,0,0,0,3.823,18.566,42.039,42.039,0,0,0,10.648,14.471,50.667,50.667,0,0,0,15.973,9.42,55.4,55.4,0,0,0,19.522,3.413q13.925,0,22.8-5.461a60.372,60.372,0,0,0,15.154-13.1h2.184v14.2Zm-2.321-42.73a30.022,30.022,0,0,1-6.552,9.83,32.893,32.893,0,0,1-23.345,9.419,25.358,25.358,0,0,1-15.426-4.914,15.459,15.459,0,0,1-6.69-13.106q0-8.192,6.963-13.788t19.8-5.6a56.926,56.926,0,0,1,14.607,1.775,74.477,74.477,0,0,1,12.969,4.778A30.036,30.036,0,0,1,451.717,523.494Zm59.109,42.73h35.768V523.085l15.836-15.563,36.587,58.7h42.32V564.04l-53.788-81.091,49.693-48.328v-2.184H593.01l-44.778,44.778h-1.638V370.731H510.826V566.224Zm217.611,0h35.222V485.952q0-28.669-16.382-43.276t-47.509-14.608q-36.86,0-58.156,26.758l25.938,17.747q12.831-15.562,31.4-15.563,12.557,0,21.024,6.963a21.849,21.849,0,0,1,8.464,17.61v4.1a105.015,105.015,0,0,0-13.925-4.232q-8.466-2.048-21.569-2.048a72,72,0,0,0-21.707,3.14,51.78,51.78,0,0,0-17.338,9.147,42.567,42.567,0,0,0-11.467,14.334,41.833,41.833,0,0,0-4.1,18.7,44.525,44.525,0,0,0,3.823,18.566,42.039,42.039,0,0,0,10.648,14.471,50.667,50.667,0,0,0,15.973,9.42,55.4,55.4,0,0,0,19.522,3.413q13.924,0,22.8-5.461a60.389,60.389,0,0,0,15.154-13.1h2.184v14.2Zm-2.321-42.73a30.024,30.024,0,0,1-6.553,9.83,32.888,32.888,0,0,1-23.344,9.419,25.363,25.363,0,0,1-15.427-4.914,15.461,15.461,0,0,1-6.689-13.106q0-8.192,6.962-13.788t19.8-5.6a56.926,56.926,0,0,1,14.607,1.775,74.477,74.477,0,0,1,12.969,4.778A30.036,30.036,0,0,1,726.116,523.494Zm95.423-115.767a22.745,22.745,0,0,0,0-32.491,23.191,23.191,0,0,0-32.628,0A23.137,23.137,0,0,0,784,382.471a23.758,23.758,0,0,0,0,18.021,23.08,23.08,0,0,0,4.914,7.235A23.236,23.236,0,0,0,821.539,407.727Zm1.638,158.5V432.437H787.41V566.224h35.767Zm-2.46,59.522a48.734,48.734,0,0,0,10.1,2.867,71.758,71.758,0,0,0,12.287.956,53.761,53.761,0,0,0,16.928-2.615,36.278,36.278,0,0,0,13.925-8.4,40.909,40.909,0,0,0,9.556-15.009q3.545-9.228,3.549-22.436V432.437H851.3V580.26q0,16.268-12.287,16.271a19.949,19.949,0,0,1-5.051-.546,15.833,15.833,0,0,1-4.232-1.911Zm64.709-218.019a22.745,22.745,0,0,0,0-32.491,23.191,23.191,0,0,0-32.628,0,23.137,23.137,0,0,0-4.914,7.235,23.758,23.758,0,0,0,0,18.021,23.08,23.08,0,0,0,4.914,7.235A23.236,23.236,0,0,0,885.426,407.727Zm61.023,25.666a66.165,66.165,0,0,0-37.133,37.269,79.849,79.849,0,0,0,0,57.337,66.162,66.162,0,0,0,37.133,37.27,79.107,79.107,0,0,0,57.061,0A66.194,66.194,0,0,0,1040.65,528a79.9,79.9,0,0,0,0-57.337,66.2,66.2,0,0,0-37.14-37.269A79.093,79.093,0,0,0,946.449,433.393ZM961.6,534.962a34.076,34.076,0,0,1-11.194-7.509,35.563,35.563,0,0,1-7.782-12.013,46.705,46.705,0,0,1,0-32.218,35.6,35.6,0,0,1,7.782-12.014A34.15,34.15,0,0,1,961.6,463.7a34.706,34.706,0,0,1,13.379-2.594,35.059,35.059,0,0,1,13.242,2.594,33.836,33.836,0,0,1,11.331,7.508,35.742,35.742,0,0,1,7.786,12.014,46.8,46.8,0,0,1,0,32.218,35.708,35.708,0,0,1-7.786,12.013,33.764,33.764,0,0,1-11.331,7.509,34.982,34.982,0,0,1-13.242,2.594A34.632,34.632,0,0,1,961.6,534.962Zm99.108,31.262h33.59V550.115h2.18q4.92,8.467,15.29,14.471t25.67,6.007a57.931,57.931,0,0,0,24.43-5.324,65.352,65.352,0,0,0,20.48-14.744A70.14,70.14,0,0,0,1196.41,528a81.774,81.774,0,0,0,0-57.337,70.135,70.135,0,0,0-14.06-22.525,65.336,65.336,0,0,0-20.48-14.744,57.917,57.917,0,0,0-24.43-5.325q-15.3,0-25.67,6.007t-15.29,14.471h-2.18l2.18-19.112v-58.7h-35.77V566.224Zm55.84-31.262a33.75,33.75,0,0,1-11.33-7.509,37.2,37.2,0,0,1-7.92-12.013,44.75,44.75,0,0,1,0-32.218,37.233,37.233,0,0,1,7.92-12.014,33.822,33.822,0,0,1,11.33-7.508,35.712,35.712,0,0,1,13.52-2.594,34.211,34.211,0,0,1,13.51,2.73,35.62,35.62,0,0,1,11.33,7.645,37.408,37.408,0,0,1,7.92,12.014,43.3,43.3,0,0,1,0,31.672,37.359,37.359,0,0,1-7.92,12.013,35.522,35.522,0,0,1-11.33,7.645,34.124,34.124,0,0,1-13.51,2.731A35.635,35.635,0,0,1,1116.55,534.962Zm176.11,32.082a56.964,56.964,0,0,0,18.02-9.693,44.653,44.653,0,0,0,11.6-14.062,35.764,35.764,0,0,0,4.1-16.655,36.387,36.387,0,0,0-9.97-25.529q-9.96-10.782-30.44-15.7l-20.48-4.915a55.323,55.323,0,0,1-12.97-4.914q-4.77-2.727-4.78-7.372,0-4.916,5.74-8.055a27.445,27.445,0,0,1,13.38-3.14,33.746,33.746,0,0,1,14.74,3.55,23.683,23.683,0,0,1,11.19,11.467l30.86-12.559q-7.11-16.383-22.12-23.891t-34.13-7.509a77.213,77.213,0,0,0-21.43,2.867,55.6,55.6,0,0,0-17.34,8.191,39.492,39.492,0,0,0-11.6,12.97,35.383,35.383,0,0,0-4.23,17.474,31.68,31.68,0,0,0,3.54,15.29,38.809,38.809,0,0,0,9.01,11.194,50.435,50.435,0,0,0,12.16,7.645,65.362,65.362,0,0,0,12.96,4.369l18.84,4.1q11.745,2.733,16.52,6.144a10.47,10.47,0,0,1,4.78,8.873q0,4.916-5.73,8.464-5.745,3.552-15.57,3.55a31.105,31.105,0,0,1-17.33-5.051q-7.785-5.049-12.43-15.427l-31.94,13.652a59.065,59.065,0,0,0,7.92,14.061,55.943,55.943,0,0,0,12.69,12.287,64.442,64.442,0,0,0,17.75,8.6,76.515,76.515,0,0,0,23.34,3.276A72.758,72.758,0,0,0,1292.66,567.044Z" transform="translate(-363.938 -368.531)"/>
</svg>
