<svg xmlns="http://www.w3.org/2000/svg" viewBox="0 0 1063.47 185.22"><defs><style>.cls-1{fill:#222;}.cls-2{fill:#226ce7;}.cls-3{fill:#f42e4f;}</style></defs><title>logo-clipped_1</title><g id="Warstwa_2" data-name="Warstwa 2"><g id="Warstwa_1-2" data-name="Warstwa 1"><path class="cls-1" d="M225.76,122.53q0-5.07,5.07-8.58a10.3,10.3,0,0,1,5.65-1.75q4.1,0,7.8,3.7a41.2,41.2,0,0,0,12.19,9,36.36,36.36,0,0,0,15.31,2.93Q287,127.22,287,116.29a9.32,9.32,0,0,0-5.17-8.58q-5.16-2.92-16.09-5.85a139,139,0,0,1-18.42-6.24A32.55,32.55,0,0,1,235,86.17q-5.16-6.35-5.16-17.07a25.79,25.79,0,0,1,5.36-16.28,35.32,35.32,0,0,1,14-10.73,45.44,45.44,0,0,1,18.42-3.8A56.6,56.6,0,0,1,287.57,42a34.6,34.6,0,0,1,15.6,10.92,10.85,10.85,0,0,1,2.54,7,9.08,9.08,0,0,1-3.7,7.41,9.85,9.85,0,0,1-6.25,2.14,9.46,9.46,0,0,1-7-2.73,24.77,24.77,0,0,0-9.06-6.82A30,30,0,0,0,267.1,57.4q-14.82,0-14.82,10.73A9.17,9.17,0,0,0,255,75.05a18.83,18.83,0,0,0,6.92,4.1q4.2,1.45,11.8,3.6a128.89,128.89,0,0,1,17.55,6,30.09,30.09,0,0,1,11.89,9.55q4.88,6.44,4.88,17A26,26,0,0,1,302.39,132a35.76,35.76,0,0,1-14.52,10.82,46.92,46.92,0,0,1-18.24,3.71,66,66,0,0,1-24-4.29,39.88,39.88,0,0,1-18.14-13.85A9.47,9.47,0,0,1,225.76,122.53Z"/><path class="cls-1" d="M409.25,132.87a10.42,10.42,0,0,1-3.8,8.19,12.12,12.12,0,0,1-8.09,3.31,11.11,11.11,0,0,1-8.58-3.9l-35.1-37-9.56,8.78v20.47a11.72,11.72,0,0,1-3.31,8.49,12,12,0,0,1-16.77,0,11.72,11.72,0,0,1-3.32-8.49V12.16A11.7,11.7,0,0,1,324,3.68a12,12,0,0,1,16.77,0,11.69,11.69,0,0,1,3.31,8.48V84.31L385.85,44a11.78,11.78,0,0,1,8.58-3.71,10.42,10.42,0,0,1,7.71,3.61c2.27,2.41,3.41,4.84,3.41,7.31q0,4.68-4.68,8.78L371.42,87l34.13,37.05A12.43,12.43,0,0,1,409.25,132.87Z"/><path class="cls-1" d="M505,43.66a11.68,11.68,0,0,1,3.31,8.48V135q0,25.35-13.65,37t-36.46,11.6a89.13,89.13,0,0,1-13.56-1.07,51.15,51.15,0,0,1-11.21-2.83q-9.56-4.09-9.55-11.31a10,10,0,0,1,.58-3.12,12,12,0,0,1,4-6.53,9.65,9.65,0,0,1,6.14-2.25,11.67,11.67,0,0,1,3.71.59c.9.39,2.5,1,4.77,1.95a48.63,48.63,0,0,0,7.22,2.24,34.72,34.72,0,0,0,7.9.88q13.83,0,20.37-6t6.54-20.38v-1.95Q475,146.53,453.52,146.52a33.65,33.65,0,0,1-17.94-4.78,32.07,32.07,0,0,1-12.09-13.26,42.25,42.25,0,0,1-4.29-19.4V52.14a11.68,11.68,0,0,1,3.31-8.48,12,12,0,0,1,16.77,0,11.68,11.68,0,0,1,3.32,8.48v49.92q0,12.28,5.36,17.65t15.7,5.36q10.13,0,15.69-5.95t5.56-17.06V52.14a11.64,11.64,0,0,1,3.32-8.48,12,12,0,0,1,16.77,0Z"/><path class="cls-1" d="M589.92,41.61a9.89,9.89,0,0,1,4,7.8q0,6-3.12,9.07a10.3,10.3,0,0,1-7.41,3,19.47,19.47,0,0,1-6.63-1.37c-.39-.12-1.26-.39-2.63-.78a15.9,15.9,0,0,0-4.39-.58A17.33,17.33,0,0,0,560,61.89a22.8,22.8,0,0,0-7.7,9.45,34.8,34.8,0,0,0-3,15.12v46.21a11.72,11.72,0,0,1-3.32,8.49,12,12,0,0,1-16.77,0,11.72,11.72,0,0,1-3.31-8.49V52.14a11.68,11.68,0,0,1,3.31-8.48,12,12,0,0,1,16.77,0,11.68,11.68,0,0,1,3.32,8.48v2.53a29.5,29.5,0,0,1,12.87-12.18,39.51,39.51,0,0,1,17.94-4.2A14.93,14.93,0,0,1,589.92,41.61Z"/><path class="cls-1" d="M690.83,120.49a49.58,49.58,0,0,1-19.21,19.2,56.23,56.23,0,0,1-53.72,0,49.8,49.8,0,0,1-19.11-19.2,55.77,55.77,0,0,1-7-28,55.74,55.74,0,0,1,7-28,50.48,50.48,0,0,1,19.11-19.3,55.52,55.52,0,0,1,53.72,0,50.24,50.24,0,0,1,19.21,19.3,55.74,55.74,0,0,1,7,28A55.77,55.77,0,0,1,690.83,120.49Zm-20.38-45a29.43,29.43,0,0,0-10.72-11.6,29.2,29.2,0,0,0-29.84,0,29.43,29.43,0,0,0-10.72,11.6,35.71,35.71,0,0,0-4,17.06,35.13,35.13,0,0,0,4,17A29.55,29.55,0,0,0,629.89,121a29.2,29.2,0,0,0,29.84,0,29.55,29.55,0,0,0,10.72-11.5,35.13,35.13,0,0,0,4-17A35.71,35.71,0,0,0,670.45,75.44Z"/><path class="cls-1" d="M782.67,43.46q10.14,5.17,10.14,13.75a11.79,11.79,0,0,1-2.53,7.51,8,8,0,0,1-6.63,3.21,12.37,12.37,0,0,1-5.07-.88,18,18,0,0,1-3.8-2.33,27,27,0,0,0-3.61-2.44,24.48,24.48,0,0,0-5.75-1.76,33,33,0,0,0-6.15-.78q-14.62,0-22.91,9.07T728.07,92.5q0,14,8.39,23.3t21.45,9.27q9.55,0,14.23-2.34a25.47,25.47,0,0,0,3.22-2,22.62,22.62,0,0,1,3.8-2.24,10.54,10.54,0,0,1,4.29-.78,9.9,9.9,0,0,1,7.71,3.12,11.45,11.45,0,0,1,2.82,8q0,4.68-5.46,8.78a42.43,42.43,0,0,1-14.43,6.53A72.81,72.81,0,0,1,755,146.52q-15,0-26.42-7a47.24,47.24,0,0,1-17.65-19.41,60.41,60.41,0,0,1-6.24-27.59q0-15.8,6.54-28.08a48,48,0,0,1,18.23-19.2A51,51,0,0,1,756,38.29Q772.54,38.29,782.67,43.46Z"/><path class="cls-1" d="M893.63,132.87a10.45,10.45,0,0,1-3.8,8.19,12.16,12.16,0,0,1-8.1,3.31,11.11,11.11,0,0,1-8.58-3.9l-35.1-37-9.55,8.78v20.47a11.72,11.72,0,0,1-3.32,8.49,12,12,0,0,1-16.77,0,11.72,11.72,0,0,1-3.31-8.49V12.16a11.69,11.69,0,0,1,3.31-8.48,12,12,0,0,1,16.77,0,11.7,11.7,0,0,1,3.32,8.48V84.31L870.23,44a11.78,11.78,0,0,1,8.58-3.71,10.39,10.39,0,0,1,7.7,3.61c2.27,2.41,3.41,4.84,3.41,7.31q0,4.68-4.68,8.78L855.8,87l34.12,37.05A12.44,12.44,0,0,1,893.63,132.87Z"/><path class="cls-1" d="M990.35,97.57a12.41,12.41,0,0,1-8.19,2.93H917.81q2.34,11.5,10.72,18a30,30,0,0,0,18.92,6.53,42.1,42.1,0,0,0,12.48-1.46,33.13,33.13,0,0,0,7.12-3.12q2.63-1.67,3.6-2.25a14.87,14.87,0,0,1,6.63-1.75,9.57,9.57,0,0,1,7,2.92,9.37,9.37,0,0,1,2.93,6.83q0,5.27-5.46,9.55a46.62,46.62,0,0,1-14.63,7.61,57.11,57.11,0,0,1-18.52,3.12q-16.38,0-28.57-6.83a47.63,47.63,0,0,1-18.82-18.81,54.9,54.9,0,0,1-6.63-27q0-16.77,7-29.45A49.88,49.88,0,0,1,920.15,45a47.93,47.93,0,0,1,24.57-6.73,45.57,45.57,0,0,1,24.28,7,52.52,52.52,0,0,1,18.23,18.92A50.84,50.84,0,0,1,994.05,90,10,10,0,0,1,990.35,97.57ZM918,81h51.09V79.63q-.78-8.19-8-14a25.31,25.31,0,0,0-16.38-5.85Q922.1,59.74,918,81Z"/><path class="cls-1" d="M1060.45,125.17a10.32,10.32,0,0,1,2.24,6.92q0,5.26-5.75,8.87a23.88,23.88,0,0,1-13,3.61q-12.09,0-20.38-5.17t-8.28-21.94V63.64h-9a10.66,10.66,0,0,1-10.92-10.92,10,10,0,0,1,3.12-7.5,10.73,10.73,0,0,1,7.8-3h9V29.71a11.65,11.65,0,0,1,11.89-11.89,11,11,0,0,1,8.19,3.41,11.7,11.7,0,0,1,3.32,8.48V42.19h13.84a10.66,10.66,0,0,1,10.92,10.92,10,10,0,0,1-3.12,7.51,10.74,10.74,0,0,1-7.8,3h-13.84v52.85q0,4.1,2.14,6a8.68,8.68,0,0,0,5.85,1.85,16.73,16.73,0,0,0,4.29-.78,11.65,11.65,0,0,1,4.49-1A6.48,6.48,0,0,1,1060.45,125.17Z"/><rect class="cls-1" x="-9.76" y="46.2" width="88.51" height="21.99" rx="10.99" transform="translate(-30.34 41.15) rotate(-45)"/><rect class="cls-2" x="48.01" y="35.2" width="88.51" height="21.99" rx="10.99" transform="translate(-5.64 78.77) rotate(-45)"/><rect class="cls-3" x="37.01" y="92.97" width="88.51" height="21.99" rx="10.99" transform="translate(-49.71 87.91) rotate(-45)"/><rect class="cls-1" x="106.47" y="23.51" width="88.51" height="21.99" rx="10.99" transform="translate(19.75 116.68) rotate(-45)"/><rect class="cls-1" x="83.78" y="139.73" width="88.51" height="21.99" rx="10.99" transform="translate(-69.08 134.68) rotate(-45)"/><rect class="cls-2" x="94.78" y="81.96" width="88.51" height="21.99" rx="10.99" transform="translate(-25.01 125.54) rotate(-45)"/></g></g></svg>